<svg xmlns="http://www.w3.org/2000/svg" width="347" height="100" viewBox="0 0 347 100">
  <defs>
    <filter id="logo-a" width="107.1%" height="127.5%" x="-3.5%" y="-13.2%" filterUnits="objectBoundingBox">
      <feOffset dy="2" in="SourceAlpha" result="shadowOffsetOuter1"/>
      <feGaussianBlur in="shadowOffsetOuter1" result="shadowBlurOuter1" stdDeviation="2"/>
      <feColorMatrix in="shadowBlurOuter1" result="shadowMatrixOuter1" values="0 0 0 0 0   0 0 0 0 0   0 0 0 0 0  0 0 0 0.22449615 0"/>
      <feMerge>
        <feMergeNode in="shadowMatrixOuter1"/>
        <feMergeNode in="SourceGraphic"/>
      </feMerge>
    </filter>
  </defs>
  <g fill="none" fill-rule="evenodd" filter="url(#logo-a)" transform="translate(4 2)">
    <path fill="#2F3768" d="M79.189663,32.3365216 C86.5766796,50.1152948 78.1264586,70.5236866 60.3177845,77.9021918 C42.5100497,85.2853876 22.0922044,76.8439649 14.7061271,59.0586247 C7.31253591,41.2742227 15.7599392,20.8770887 33.5629779,13.4967072 C51.3631989,6.10975876 71.7941934,14.5436763 79.189663,32.3365216"/>
    <path fill="#E3CB49" d="M72.791558,18.3380948 C75.262663,11.5215381 71.763105,3.96853814 64.9283536,1.45900206 C58.0813923,-1.06835876 50.4792928,2.44030103 47.950895,9.28312577 C47.7743204,9.75407423 47.6306188,10.226899 47.5150939,10.695033 L43.7910608,20.9892907 L49.4921657,25.3131979 L53.7571934,13.7665175 C54.9378011,15.4373526 56.7373591,16.8455072 58.9586298,17.6626309 C61.3301768,18.5369814 63.7665304,18.5707546 65.8497348,17.9365691 L61.4982983,29.7299814 L68.4373039,30.526466 L72.7943757,18.3380948 L72.791558,18.3380948 Z"/>
    <path stroke="#2E3567" stroke-width="1.278" d="M72.791558,18.3380948 C75.262663,11.5215381 71.763105,3.96853814 64.9283536,1.45900206 C58.0813923,-1.06835876 50.4792928,2.44030103 47.950895,9.28312577 C47.7743204,9.75407423 47.6306188,10.226899 47.5150939,10.695033 L43.7910608,20.9892907 L49.4921657,25.3131979 L53.7571934,13.7665175 C54.9378011,15.4373526 56.7373591,16.8455072 58.9586298,17.6626309 C61.3301768,18.5369814 63.7665304,18.5707546 65.8497348,17.9365691 L61.4982983,29.7299814 L68.4373039,30.526466 L72.7943757,18.3380948 L72.791558,18.3380948 Z"/>
    <path stroke="#2E3567" stroke-width="1.278" d="M66.3591713,9.06932268 C65.4875691,11.4418897 62.8492818,12.6605392 60.4805525,11.7843124 C58.1052486,10.9033948 56.8927072,8.27846701 57.7567956,5.90496186 C58.6471823,3.52864227 61.2741989,2.32500309 63.6523204,3.1927866 C66.0201105,4.06995155 67.2335912,6.70332268 66.3591713,9.06932268 Z"/>
    <path fill="#E3CB49" d="M46.3304475,8.83619381 C43.5071326,2.15379175 35.8139282,-1.01244536 29.0853094,1.7738433 C22.3369669,4.57138969 19.1417182,12.301699 21.9330994,19.0403897 C22.1284586,19.4991423 22.3529337,19.9410082 22.5886796,20.3669258 L26.2657514,29.4903794 L33.9730442,29.7568124 L29.2459171,18.3827505 C31.2568011,18.8124206 33.5372431,18.6322969 35.7171878,17.7260495 C38.0530442,16.7569464 39.8638729,15.1283278 40.9665249,13.2492247 L45.7979061,24.8559464 L51.9291768,22.3163897 L46.3379613,8.83619381 L46.3304475,8.83619381 Z"/>
    <path stroke="#2E3567" stroke-width="1.278" d="M46.3304475,8.83619381 C43.5071326,2.15379175 35.8139282,-1.01244536 29.0853094,1.7738433 C22.3369669,4.57138969 19.1417182,12.301699 21.9330994,19.0403897 C22.1284586,19.4991423 22.3529337,19.9410082 22.5886796,20.3669258 L26.2657514,29.4903794 L33.9730442,29.7568124 L29.2459171,18.3827505 C31.2568011,18.8124206 33.5372431,18.6322969 35.7171878,17.7260495 C38.0530442,16.7569464 39.8638729,15.1283278 40.9665249,13.2492247 L45.7979061,24.8559464 L51.9291768,22.3163897 L46.3379613,8.83619381 L46.3304475,8.83619381 Z"/>
    <path stroke="#2E3567" stroke-width="1.278" d="M35.3091878,6.39326598 C36.2784696,8.73018351 35.1701823,11.4067093 32.8286906,12.3748742 C30.4928343,13.3439773 27.8197956,12.2313381 26.8448785,9.90098763 C25.8746575,7.5640701 26.9829448,4.88848247 29.3234972,3.92313196 C31.6555967,2.9484 34.3352099,4.05822474 35.3091878,6.39326598 Z"/>
    <path fill="#E3CB49" d="M10.820547,44.8103701 C3.70402762,42.281133 -0.110171271,34.7637825 2.2970663,27.9716175 C4.70524309,21.162566 12.467011,17.6632876 19.6314309,20.1634423 C20.1226464,20.3351227 20.5997735,20.5293186 21.0449669,20.7450918 L35.4818177,25.5877928 L31.5671215,31.6660299 L19.4755193,27.4462567 C20.0615967,29.4276175 20.029663,31.6829165 19.2510442,33.889432 C18.4160718,36.2535557 16.8550773,38.1270299 15.0038619,39.2987722 L27.3452983,43.6029784 L21.5897182,48.7121124 L10.820547,44.8103701 Z"/>
    <path stroke="#2E3567" stroke-width="1.237" d="M10.820547,44.8103701 C3.70402762,42.281133 -0.110171271,34.7637825 2.2970663,27.9716175 C4.70524309,21.162566 12.467011,17.6632876 19.6314309,20.1634423 C20.1226464,20.3351227 20.5997735,20.5293186 21.0449669,20.7450918 L35.4818177,25.5877928 L31.5671215,31.6660299 L19.4755193,27.4462567 C20.0615967,29.4276175 20.029663,31.6829165 19.2510442,33.889432 C18.4160718,36.2535557 16.8550773,38.1270299 15.0038619,39.2987722 L27.3452983,43.6029784 L21.5897182,48.7121124 L10.820547,44.8103701 Z"/>
    <path stroke="#2E3567" stroke-width="1.237" d="M7.50845856,33.9695495 C9.98613812,34.8288897 12.6789006,33.6205598 13.5110552,31.2526835 C14.3479061,28.8979412 13.0142044,26.2880237 10.5355856,25.4127351 C8.04945304,24.5505804 5.36420442,25.7617247 4.52171823,28.1286629 C3.69050276,30.4815289 5.01950829,33.0980134 7.50845856,33.9695495 Z"/>
    <path fill="#E3CB49" d="M45.0105525,82.5120454 C42.0623204,89.1372206 34.3033702,92.1552309 27.6358011,89.2497979 C20.9466298,86.3340454 17.8885083,78.5493237 20.801989,71.8603546 C21.0076796,71.3969113 21.2321547,70.9672412 21.4772928,70.5469526 L25.9921547,60.3483856 L33.0279006,61.3597052 L28.0969613,72.6418289 C30.1228729,72.2496845 32.3826519,72.4795299 34.551326,73.4251794 C36.869337,74.4374371 38.6548066,76.0970144 39.7198895,77.992066 L44.7550829,66.4697773 L49.7921547,71.1361072 L45.0105525,82.5120454 Z"/>
    <path stroke="#2E3567" stroke-width="1.278" d="M45.0105525,82.5120454 C42.0623204,89.1372206 34.3033702,92.1552309 27.6358011,89.2497979 C20.9466298,86.3340454 17.8885083,78.5493237 20.801989,71.8603546 C21.0076796,71.3969113 21.2321547,70.9672412 21.4772928,70.5469526 L25.9921547,60.3483856 L33.0279006,61.3597052 L28.0969613,72.6418289 C30.1228729,72.2496845 32.3826519,72.4795299 34.551326,73.4251794 C36.869337,74.4374371 38.6548066,76.0970144 39.7198895,77.992066 L44.7550829,66.4697773 L49.7921547,71.1361072 L45.0105525,82.5120454 Z"/>
    <path stroke="#2E3567" stroke-width="1.278" d="M33.9443978,84.749332 C34.9521878,82.4283629 33.8964972,79.7311979 31.5831823,78.7292598 C29.2585967,77.7094969 26.5620773,78.7696 25.5477127,81.0849402 C24.5408619,83.4002804 25.5927956,86.1002598 27.904232,87.1143938 C30.2325746,88.1182082 32.9337901,87.0581052 33.9443978,84.749332 Z"/>
    <path fill="#E3CB49" d="M47.642547,82.7750072 C50.4799503,89.455533 58.182547,92.5973784 64.899895,89.8139041 C71.6407238,87.0088526 74.8322155,79.2757289 72.0276851,72.5351619 C71.8332652,72.0811 71.6153646,71.6401722 71.3777403,71.2123784 L67.6771878,62.4135227 L59.9745912,61.8337495 L64.7167459,73.2021825 C62.7133757,72.7734505 60.4366906,72.9667082 58.2539282,73.8785845 C55.9161934,74.8448732 54.1006685,76.4772443 53.0130442,78.3572856 L48.1666354,66.7505639 L41.249232,67.3369041 L47.642547,82.7750072 Z"/>
    <path stroke="#2E3567" stroke-width="1.278" d="M47.642547,82.7750072 C50.4799503,89.455533 58.182547,92.5973784 64.899895,89.8139041 C71.6407238,87.0088526 74.8322155,79.2757289 72.0276851,72.5351619 C71.8332652,72.0811 71.6153646,71.6401722 71.3777403,71.2123784 L67.6771878,62.4135227 L59.9745912,61.8337495 L64.7167459,73.2021825 C62.7133757,72.7734505 60.4366906,72.9667082 58.2539282,73.8785845 C55.9161934,74.8448732 54.1006685,76.4772443 53.0130442,78.3572856 L48.1666354,66.7505639 L41.249232,67.3369041 L47.642547,82.7750072 Z"/>
    <path stroke="#2E3567" stroke-width="1.278" d="M58.6770497,85.2060206 C57.6964972,82.8691031 58.8038453,80.1897629 61.1434586,79.2187835 C63.4793149,78.246866 66.1532928,79.3510619 67.1310276,81.6823505 C68.1021878,84.0145773 66.9976575,86.6882887 64.6618011,87.6705258 C62.3287624,88.6386907 59.6453923,87.5373093 58.6770497,85.2060206 Z"/>
    <path fill="#E3CB49" d="M73.1649006,71.6400784 C79.958326,74.2359237 87.575453,70.8811196 90.2203149,64.1180371 C92.8755083,57.3193052 89.5196519,49.6527897 82.7140166,47.002532 C82.2547348,46.8224082 81.7841823,46.6723052 81.3098729,46.5494082 L69.1553425,41.8014598 L66.6382155,48.2343155 L78.1183812,52.7158309 C76.4127459,53.866934 74.9757293,55.6278309 74.1125801,57.8287175 C73.1968343,60.1900268 73.1066685,62.616068 73.705895,64.7184495 L61.9824696,60.1318619 L59.5611436,66.3292433 L73.1649006,71.6400784 Z"/>
    <path stroke="#2E3567" stroke-width="1.278" d="M73.1649006,71.6400784 C79.958326,74.2359237 87.575453,70.8811196 90.2203149,64.1180371 C92.8755083,57.3193052 89.5196519,49.6527897 82.7140166,47.002532 C82.2547348,46.8224082 81.7841823,46.6723052 81.3098729,46.5494082 L69.1553425,41.8014598 L66.6382155,48.2343155 L78.1183812,52.7158309 C76.4127459,53.866934 74.9757293,55.6278309 74.1125801,57.8287175 C73.1968343,60.1900268 73.1066685,62.616068 73.705895,64.7184495 L61.9824696,60.1318619 L59.5611436,66.3292433 L73.1649006,71.6400784 Z"/>
    <path stroke="#2E3567" stroke-width="1.278" d="M82.5700331,65.3986979 C80.2153923,64.4736876 79.0469945,61.8187392 79.9702541,59.4639969 C80.8972707,57.1139454 83.5552818,55.9572134 85.907105,56.870966 C88.2523536,57.7884711 89.4282652,60.4424814 88.5012486,62.7991 C87.5883204,65.1529041 84.9274917,66.3171412 82.5700331,65.3986979 Z"/>
    <path fill="#E3CB49" d="M18.6035414,70.4128918 C11.8213867,73.0068608 4.1948674,69.6558093 1.55470166,62.8805309 C-1.11270166,56.0921186 2.24597238,48.4256031 9.05724309,45.7715928 C9.52216022,45.5942835 9.99271271,45.4451186 10.4689006,45.3194072 L24.7103923,39.9213247 L25.1386796,47.0071289 L13.6547569,51.4923969 C15.3585138,52.6453763 16.7964696,54.4034588 17.6530442,56.6127887 C18.5791215,58.9543969 18.6608343,61.3963866 18.071,63.4940773 L29.7878508,58.9168711 L34.1909448,64.0297577 L18.6035414,70.4157062 L18.6035414,70.4128918 Z"/>
    <path stroke="#2E3567" stroke-width="1.278" d="M18.6035414,70.4128918 C11.8213867,73.0068608 4.1948674,69.6558093 1.55470166,62.8805309 C-1.11270166,56.0921186 2.24597238,48.4256031 9.05724309,45.7715928 C9.52216022,45.5942835 9.99271271,45.4451186 10.4689006,45.3194072 L24.7103923,39.9213247 L25.1386796,47.0071289 L13.6547569,51.4923969 C15.3585138,52.6453763 16.7964696,54.4034588 17.6530442,56.6127887 C18.5791215,58.9543969 18.6608343,61.3963866 18.071,63.4940773 L29.7878508,58.9168711 L34.1909448,64.0297577 L18.6035414,70.4157062 L18.6035414,70.4128918 Z"/>
    <path stroke="#2E3567" stroke-width="1.278" d="M9.20620442,64.1670082 C11.5589669,63.2560701 12.7179724,60.5926784 11.7956519,58.2351216 C10.8780276,55.8850701 8.22565193,54.7245856 5.86725414,55.6392763 C3.49946409,56.5642866 2.3489116,59.2117299 3.27029282,61.5711629 C4.1869779,63.9230907 6.84592818,65.0901423 9.20620442,64.1670082 Z"/>
    <path fill="#E3CB49" d="M83.4267017,44.931766 C90.0567017,41.9691062 93.0622265,34.2153433 90.1337182,27.5676526 C87.1920608,20.8861887 79.3889669,17.8606732 72.6997956,20.7876835 C72.2442707,20.9893845 71.8065912,21.2229825 71.3848785,21.4593948 L59.4491878,26.7045598 L62.2264807,33.0285907 L73.5084696,28.0742505 C73.1233867,30.0893845 73.3581934,32.3540649 74.3077514,34.5127351 C75.3202376,36.8280753 76.9892431,38.6133639 78.8949337,39.6687763 L67.373442,44.7347557 L70.0539945,50.8092402 L83.4267017,44.9402093 L83.4267017,44.931766 Z"/>
    <path stroke="#2E3567" stroke-width="1.278" d="M83.4267017,44.931766 C90.0567017,41.9691062 93.0622265,34.2153433 90.1337182,27.5676526 C87.1920608,20.8861887 79.3889669,17.8606732 72.6997956,20.7876835 C72.2442707,20.9893845 71.8065912,21.2229825 71.3848785,21.4593948 L59.4491878,26.7045598 L62.2264807,33.0285907 L73.5084696,28.0742505 C73.1233867,30.0893845 73.3581934,32.3540649 74.3077514,34.5127351 C75.3202376,36.8280753 76.9892431,38.6133639 78.8949337,39.6687763 L67.373442,44.7347557 L70.0539945,50.8092402 L83.4267017,44.9402093 L83.4267017,44.931766 Z"/>
    <path stroke="#2E3567" stroke-width="1.278" d="M85.6454365,33.8765794 C83.3264862,34.8954041 80.6177569,33.8437443 79.5996354,31.5302804 C78.5843315,29.2215072 79.6409613,26.5140227 81.9561547,25.4998887 C84.2713481,24.4838784 86.9697459,25.5383526 87.9888066,27.8414969 C89.0097459,30.1605897 87.9512376,32.8568165 85.6454365,33.8765794 Z"/>
    <path fill="#2F3768" d="M69.5602431,36.6548 C74.602011,48.784068 68.8351602,62.7108206 56.6881436,67.7317691 C44.5505193,72.7592845 30.6208508,67.0150268 25.5865967,54.8866969 C20.5429503,42.7508619 26.3098011,28.8409959 38.445547,23.810666 C50.594442,18.7812742 64.5203536,24.5264701 69.5602431,36.6548"/>
    <polygon fill="#E3CB49" points="68.966 47.459 68.955 45.087 49.314 45.127 63.3 31.342 61.631 29.665 47.908 43.183 47.873 24.551 45.499 24.551 45.54 42.676 33.211 30.204 31.519 31.864 44.631 45.136 25.974 45.177 25.974 47.552 43.518 47.517 31.025 59.824 32.69 61.516 45.555 48.841 45.592 67.5 47.963 67.494 47.925 48.469 61.72 62.434 63.417 60.774 50.293 47.496"/>
    <path fill="#2F3768" d="M252.764923,57.4121814 L253.973707,57.1823361 C254.044149,57.7977588 254.235751,58.2546351 254.55321,58.5539031 C254.86879,58.8541093 255.289564,59.0042124 255.814591,59.0042124 C256.336801,59.0042124 256.742547,58.871934 257.02995,58.6139443 C257.317354,58.3531402 257.459177,58.0247897 257.459177,57.6242021 C257.459177,57.2789649 257.338017,57.0134701 257.091,56.8211505 C256.921,56.6907485 256.511497,56.5237588 255.859674,56.3276866 C254.919508,56.0387381 254.289287,55.7948206 253.973707,55.5912433 C253.65437,55.3895423 253.406414,55.1184186 253.231718,54.7806866 C253.058901,54.4401402 252.969674,54.0526866 252.969674,53.6220784 C252.969674,52.879068 253.210116,52.2758412 253.686304,51.8095835 C254.159674,51.3461402 254.81995,51.1162948 255.664315,51.1162948 C256.194978,51.1162948 256.658956,51.2091711 257.064702,51.4005526 C257.464812,51.5909959 257.774757,51.8471093 257.984204,52.1745216 C258.199287,52.4944289 258.346746,52.9559959 258.427519,53.5582845 L257.246912,53.7552948 C257.136083,52.8012021 256.621387,52.3283773 255.697188,52.3283773 C255.170282,52.3283773 254.776746,52.4325113 254.522215,52.6417175 C254.264867,52.8509237 254.136193,53.119233 254.136193,53.4485216 C254.136193,53.7665526 254.259232,54.0217278 254.506249,54.2056041 C254.651829,54.3144289 255.090448,54.4879856 255.823983,54.7272124 C256.827077,55.0461814 257.475144,55.2994804 257.769122,55.4880474 C258.063099,55.6775526 258.290392,55.9346041 258.455696,56.2601402 C258.617243,56.5884907 258.701773,56.974068 258.701773,57.4243773 C258.701773,58.2555732 258.435972,58.9310371 257.908127,59.4432639 C257.380282,59.9583052 256.658956,60.217233 255.745088,60.217233 C254.032878,60.217233 253.037298,59.2819031 252.764923,57.4121814 Z M246.464591,54.828532 L250.460061,54.828532 C250.39995,54.0752021 250.239343,53.5123155 249.971663,53.1370577 C249.583762,52.5976247 249.089729,52.3283773 248.484867,52.3283773 C247.946691,52.3283773 247.484591,52.553532 247.101387,53.0047794 C246.716304,53.4532124 246.507796,54.0648825 246.464591,54.828532 Z M250.446912,57.2151711 L251.696083,57.4028 C251.490392,58.3343773 251.112823,59.034233 250.567133,59.5079959 C250.022381,59.9798825 249.349895,60.217233 248.544978,60.217233 C247.529674,60.217233 246.712547,59.8325938 246.086083,59.0614392 C245.460558,58.2968515 245.144039,57.1879649 245.144039,55.7375938 C245.144039,54.2356247 245.462436,53.0882742 246.090779,52.2974186 C246.727575,51.5084392 247.528735,51.1162948 248.495199,51.1162948 C249.420337,51.1162948 250.19332,51.4999959 250.810392,52.2758412 C251.427464,53.0554392 251.737409,54.1765216 251.737409,55.6484701 L251.730834,56.0415526 L246.39321,56.0415526 C246.443928,57.0200371 246.670282,57.760233 247.076028,58.2555732 C247.478956,58.7556041 247.97205,59.0042124 248.55437,59.0042124 C249.459785,59.0042124 250.09658,58.4075526 250.446912,57.2151711 Z M238.693431,55.6709856 C238.693431,56.7995732 238.890669,57.6345216 239.280448,58.1814598 C239.671166,58.7283979 240.12763,59.0042124 240.646083,59.0042124 C241.160779,59.0042124 241.606912,58.7405938 241.98542,58.2133567 C242.363928,57.6898722 242.552713,56.8990165 242.552713,55.8389134 C242.552713,54.6174495 242.363928,53.7290268 241.98542,53.1680165 C241.606912,52.6051299 241.132602,52.3283773 240.559674,52.3283773 C240.049674,52.3283773 239.612934,52.5976247 239.241939,53.1342433 C238.875641,53.6727381 238.693431,54.5198825 238.693431,55.6709856 Z M242.525475,60.0202227 L242.525475,58.9207175 C242.304757,59.3419443 242.024867,59.664666 241.68111,59.8851299 C241.336414,60.106532 240.964481,60.217233 240.563431,60.217233 C239.723762,60.217233 238.991166,59.8203979 238.374094,59.0248515 C237.760779,58.2274289 237.452713,57.1072845 237.452713,55.6681711 C237.452713,54.6756144 237.58984,53.8359753 237.861276,53.1473773 C238.137409,52.4597175 238.49995,51.9446763 238.954536,51.6106969 C239.411939,51.2804701 239.919122,51.1162948 240.475144,51.1162948 C240.876193,51.1162948 241.242492,51.2194907 241.588127,51.4268206 C241.929066,51.6388412 242.213652,51.9352948 242.43437,52.3105526 L242.43437,47.9960268 L243.658182,47.9960268 L243.658182,60.0202227 L242.525475,60.0202227 Z M230.226304,60.0202227 L230.226304,51.3095526 L231.318624,51.3095526 L231.318624,52.5403979 C231.580669,52.0619443 231.900945,51.7082639 232.282271,51.4690371 C232.663597,51.2326247 233.094702,51.1162948 233.591552,51.1162948 C233.970061,51.1162948 234.327906,51.188532 234.649122,51.3386351 C234.975972,51.4878 235.236138,51.6819959 235.439011,51.9277897 C235.636249,52.1754598 235.787464,52.4878619 235.883265,52.8743773 C235.985641,53.2674598 236.031663,53.8613052 236.031663,54.6634186 L236.031663,60.0202227 L234.823818,60.0202227 L234.823818,54.7159546 C234.823818,54.0752021 234.770282,53.6098825 234.661331,53.3115526 C234.551442,53.0160371 234.378624,52.7899443 234.145696,52.6257691 C233.914646,52.4634701 233.645088,52.3856041 233.341718,52.3856041 C232.761276,52.3856041 232.29542,52.5976247 231.951663,53.0310474 C231.606967,53.463532 231.432271,54.2065423 231.432271,55.2563258 L231.432271,60.0202227 L230.226304,60.0202227 Z M222.952934,55.0846454 L226.314425,55.0846454 L225.289729,51.7523567 C224.970392,50.7297794 224.735586,49.8995216 224.588127,49.2615835 C224.464149,50.0299237 224.281939,50.7945113 224.052768,51.5562845 L222.952934,55.0846454 Z M220.118348,60.0202227 L223.924094,47.9960268 L225.323541,47.9960268 L229.365033,60.0202227 L227.871663,60.0202227 L226.72205,56.3783464 L222.571608,56.3783464 L221.498072,60.0202227 L220.118348,60.0202227 Z M210.585199,57.4121814 L211.794923,57.1823361 C211.866304,57.7977588 212.058845,58.2546351 212.375365,58.5539031 C212.692823,58.8541093 213.111718,59.0042124 213.639564,59.0042124 C214.159895,59.0042124 214.564702,58.871934 214.852105,58.6139443 C215.138569,58.3531402 215.28321,58.0247897 215.28321,57.6242021 C215.28321,57.2789649 215.163928,57.0134701 214.914094,56.8211505 C214.743155,56.6907485 214.33647,56.5237588 213.683707,56.3276866 C212.740724,56.0387381 212.112381,55.7948206 211.794923,55.5912433 C211.477464,55.3895423 211.229508,55.1184186 211.051994,54.7806866 C210.876359,54.4401402 210.792768,54.0526866 210.792768,53.6220784 C210.792768,52.879068 211.032271,52.2758412 211.504702,51.8095835 C211.981829,51.3461402 212.640227,51.1162948 213.484591,51.1162948 C214.018072,51.1162948 214.482989,51.2091711 214.883099,51.4005526 C215.288845,51.5909959 215.593155,51.8471093 215.811994,52.1745216 C216.021442,52.4944289 216.170779,52.9559959 216.252492,53.5582845 L215.068127,53.7552948 C214.958238,52.8012021 214.44542,52.3283773 213.516525,52.3283773 C212.990558,52.3283773 212.600779,52.4325113 212.346249,52.6417175 C212.087022,52.8509237 211.960227,53.119233 211.960227,53.4485216 C211.960227,53.7665526 212.080448,54.0217278 212.328403,54.2056041 C212.475862,54.3144289 212.918238,54.4879856 213.646138,54.7272124 C214.648293,55.0461814 215.294481,55.2994804 215.590337,55.4880474 C215.882436,55.6775526 216.114425,55.9346041 216.27879,56.2601402 C216.442215,56.5884907 216.523928,56.974068 216.523928,57.4243773 C216.523928,58.2555732 216.259066,58.9310371 215.729343,59.4432639 C215.205254,59.9583052 214.482989,60.217233 213.567243,60.217233 C211.852215,60.217233 210.861331,59.2819031 210.585199,57.4121814 Z M204.165586,55.6625423 C204.165586,56.7864392 204.370337,57.6251402 204.781718,58.1805216 C205.194039,58.7283979 205.703099,59.0042124 206.307961,59.0042124 C206.879011,59.0042124 207.368348,58.7255835 207.77879,58.1692639 C208.181718,57.6138825 208.389287,56.7779959 208.389287,55.6625423 C208.389287,54.5377072 208.181718,53.7027588 207.772215,53.152068 C207.361773,52.6051299 206.848956,52.3283773 206.245972,52.3283773 C205.670227,52.3283773 205.178072,52.6051299 204.773265,53.1567588 C204.370337,53.7074495 204.165586,54.5423979 204.165586,55.6625423 Z M202.925807,55.6681711 C202.925807,54.1586969 203.243265,53.0263567 203.873486,52.2627072 C204.508403,51.494367 205.308624,51.1162948 206.278845,51.1162948 C207.230282,51.1162948 208.025807,51.494367 208.666359,52.2627072 C209.305972,53.0263567 209.627188,54.1314907 209.627188,55.5734186 C209.627188,57.1401196 209.310669,58.3052948 208.679508,59.0689443 C208.054923,59.833532 207.252823,60.217233 206.278845,60.217233 C205.317077,60.217233 204.520613,59.8325938 203.881,59.0614392 C203.243265,58.2968515 202.925807,57.1616969 202.925807,55.6681711 Z M200.283762,60.0202227 L201.491608,60.0202227 L201.491608,47.9960268 L200.283762,47.9960268 L200.283762,60.0202227 Z M189.726856,54.828532 L193.715751,54.828532 C193.659398,54.0752021 193.495033,53.5123155 193.229232,53.1370577 C192.838514,52.5976247 192.347298,52.3283773 191.741497,52.3283773 C191.20332,52.3283773 190.738403,52.553532 190.35332,53.0047794 C189.972934,53.4532124 189.762547,54.0648825 189.726856,54.828532 Z M193.704481,57.2151711 L194.952713,57.4028 C194.747961,58.3343773 194.365696,59.034233 193.822823,59.5079959 C193.28089,59.9798825 192.607464,60.217233 191.800669,60.217233 C190.789122,60.217233 189.970116,59.8325938 189.342713,59.0614392 C188.71437,58.2968515 188.399729,57.1879649 188.399729,55.7375938 C188.399729,54.2356247 188.71437,53.0882742 189.352105,52.2974186 C189.980448,51.5084392 190.782547,51.1162948 191.753707,51.1162948 C192.674149,51.1162948 193.449011,51.4999959 194.067022,52.2758412 C194.682215,53.0554392 194.989343,54.1765216 194.989343,55.6484701 L194.986525,56.0415526 L189.647961,56.0415526 C189.699619,57.0200371 189.925972,57.760233 190.32984,58.2555732 C190.735586,58.7556041 191.225862,59.0042124 191.808182,59.0042124 C192.72111,59.0042124 193.352271,58.4075526 193.704481,57.2151711 Z M181.950061,55.6709856 C181.950061,56.7995732 182.144481,57.6345216 182.538017,58.1814598 C182.926856,58.7283979 183.38332,59.0042124 183.90553,59.0042124 C184.418348,59.0042124 184.864481,58.7405938 185.24205,58.2133567 C185.620558,57.6898722 185.807464,56.8990165 185.807464,55.8389134 C185.807464,54.6174495 185.620558,53.7290268 185.24205,53.1680165 C184.864481,52.6051299 184.385475,52.3283773 183.813486,52.3283773 C183.303486,52.3283773 182.868624,52.5976247 182.498569,53.1342433 C182.132271,53.6727381 181.950061,54.5198825 181.950061,55.6709856 Z M185.783983,60.0202227 L185.783983,58.9207175 C185.567961,59.3419443 185.27868,59.664666 184.93774,59.8851299 C184.593044,60.106532 184.220171,60.217233 183.820061,60.217233 C182.973818,60.217233 182.245917,59.8203979 181.63542,59.0248515 C181.01647,58.2274289 180.709343,57.1072845 180.709343,55.6681711 C180.709343,54.6756144 180.844591,53.8359753 181.117906,53.1473773 C181.39216,52.4597175 181.755641,51.9446763 182.214923,51.6106969 C182.668569,51.2804701 183.174812,51.1162948 183.732713,51.1162948 C184.134702,51.1162948 184.503818,51.2194907 184.841939,51.4268206 C185.184757,51.6388412 185.467464,51.9352948 185.695696,52.3105526 L185.695696,47.9960268 L186.916691,47.9960268 L186.916691,60.0202227 L185.783983,60.0202227 Z M170.444536,55.6709856 C170.444536,56.7995732 170.640834,57.6345216 171.030613,58.1814598 C171.425088,58.7283979 171.881552,59.0042124 172.401884,59.0042124 C172.914702,59.0042124 173.363652,58.7405938 173.74216,58.2133567 C174.117851,57.6898722 174.308514,56.8990165 174.308514,55.8389134 C174.308514,54.6174495 174.117851,53.7290268 173.74216,53.1680165 C173.363652,52.6051299 172.886525,52.3283773 172.312657,52.3283773 C171.79984,52.3283773 171.364978,52.5976247 170.995862,53.1342433 C170.628624,53.6727381 170.444536,54.5198825 170.444536,55.6709856 Z M174.280337,60.0202227 L174.280337,58.9207175 C174.061497,59.3419443 173.780669,59.664666 173.435033,59.8851299 C173.087519,60.106532 172.718403,60.217233 172.316414,60.217233 C171.478624,60.217233 170.745088,59.8203979 170.128017,59.0248515 C169.512823,58.2274289 169.204757,57.1072845 169.204757,55.6681711 C169.204757,54.6756144 169.345641,53.8359753 169.615199,53.1473773 C169.887575,52.4597175 170.251994,51.9446763 170.709398,51.6106969 C171.165862,51.2804701 171.673983,51.1162948 172.229066,51.1162948 C172.627298,51.1162948 172.999232,51.2194907 173.34111,51.4268206 C173.68111,51.6388412 173.964757,51.9352948 174.19111,52.3105526 L174.19111,47.9960268 L175.413044,47.9960268 L175.413044,60.0202227 L174.280337,60.0202227 Z M166.537354,55.6484701 C166.093099,55.868934 165.435641,56.0528103 164.558403,56.206666 C164.048403,56.291099 163.692436,56.3942948 163.489564,56.505934 C163.289508,56.6166351 163.131718,56.7770577 163.019011,56.9806351 C162.904425,57.1879649 162.853707,57.422501 162.853707,57.6898722 C162.853707,58.1073464 162.978624,58.4375732 163.237851,58.6861814 C163.492381,58.9338515 163.849287,59.0586247 164.301994,59.0586247 C164.734978,59.0586247 165.130392,58.9507381 165.483541,58.7255835 C165.833873,58.4976144 166.098735,58.1983464 166.271552,57.8268412 C166.448127,57.4525216 166.537354,56.9074598 166.537354,56.1879031 L166.537354,55.6484701 Z M166.635972,58.9451093 C166.231166,59.3653979 165.811331,59.6824907 165.372713,59.8982639 C164.935033,60.1074701 164.482326,60.217233 164.008956,60.217233 C163.266028,60.217233 162.66774,59.9920784 162.225365,59.5436454 C161.785807,59.0933361 161.561331,58.4938619 161.561331,57.7320887 C161.561331,57.2283052 161.662768,56.7836247 161.874094,56.3961711 C162.082602,56.0068412 162.368127,55.7047588 162.730669,55.4833567 C163.087575,55.2657072 163.637961,55.1052845 164.36868,55.0002124 C165.352989,54.8557381 166.075254,54.6831196 166.537354,54.4823567 L166.543928,54.1061608 C166.543928,53.5123155 166.439674,53.0920268 166.223652,52.8509237 C165.920282,52.5028722 165.461,52.3283773 164.835475,52.3283773 C164.274757,52.3283773 163.851166,52.4409546 163.572215,52.677367 C163.295144,52.9137794 163.087575,53.3490784 162.957961,53.9945216 L161.767961,53.7946969 C161.936083,52.8584289 162.27984,52.1763979 162.797354,51.7523567 C163.314867,51.3273773 164.053099,51.1162948 165.017685,51.1162948 C165.768127,51.1162948 166.357961,51.2523258 166.78437,51.5356454 C167.211718,51.8170887 167.480337,52.1670165 167.591166,52.5798 C167.703873,52.9963361 167.762105,53.6051918 167.762105,54.4026144 L167.762105,56.3689649 C167.762105,57.7452227 167.784646,58.6148825 167.841939,58.9723155 C167.88984,59.3325629 167.994094,59.6806144 168.148127,60.0202227 L166.88111,60.0202227 C166.758072,59.7200165 166.673541,59.3597691 166.635972,58.9451093 Z M155.110724,55.6709856 C155.110724,56.7995732 155.302326,57.6345216 155.693983,58.1814598 C156.088459,58.7283979 156.543983,59.0042124 157.062436,59.0042124 C157.578072,59.0042124 158.024204,58.7405938 158.401773,58.2133567 C158.778403,57.6898722 158.968127,56.8990165 158.968127,55.8389134 C158.968127,54.6174495 158.778403,53.7290268 158.401773,53.1680165 C158.024204,52.6051299 157.548017,52.3283773 156.976028,52.3283773 C156.464149,52.3283773 156.028348,52.5976247 155.655475,53.1342433 C155.290116,53.6727381 155.110724,54.5198825 155.110724,55.6709856 Z M158.94089,60.0202227 L158.94089,58.9207175 C158.722989,59.3419443 158.439343,59.664666 158.097464,59.8851299 C157.751829,60.106532 157.378956,60.217233 156.979785,60.217233 C156.138238,60.217233 155.409398,59.8203979 154.792326,59.0248515 C154.175254,58.2274289 153.869066,57.1072845 153.869066,55.6681711 C153.869066,54.6756144 154.004315,53.8359753 154.279508,53.1473773 C154.550006,52.4597175 154.912547,51.9446763 155.374646,51.6106969 C155.828293,51.2804701 156.338293,51.1162948 156.891497,51.1162948 C157.289729,51.1162948 157.666359,51.2194907 158.003541,51.4268206 C158.346359,51.6388412 158.627188,51.9352948 158.850724,52.3105526 L158.850724,47.9960268 L160.077354,47.9960268 L160.077354,60.0202227 L158.94089,60.0202227 Z M151.248624,60.0202227 L152.453652,60.0202227 L152.453652,51.3095526 L151.248624,51.3095526 L151.248624,60.0202227 Z M151.248624,49.6950062 L152.453652,49.6950062 L152.453652,47.9960268 L151.248624,47.9960268 L151.248624,49.6950062 Z M143.88321,57.4121814 L145.089177,57.1823361 C145.161497,57.7977588 145.355917,58.2546351 145.673376,58.5539031 C145.987077,58.8541093 146.411608,59.0042124 146.932878,59.0042124 C147.457906,59.0042124 147.860834,58.871934 148.149177,58.6139443 C148.437519,58.3531402 148.583099,58.0247897 148.583099,57.6242021 C148.583099,57.2789649 148.459122,57.0134701 148.209287,56.8211505 C148.040227,56.6907485 147.631663,56.5237588 146.977961,56.3276866 C146.037796,56.0387381 145.404757,55.7948206 145.089177,55.5912433 C144.772657,55.3895423 144.527519,55.1184186 144.351884,54.7806866 C144.176249,54.4401402 144.091718,54.0526866 144.091718,53.6220784 C144.091718,52.879068 144.327464,52.2758412 144.804591,51.8095835 C145.281718,51.3461402 145.937298,51.1162948 146.782602,51.1162948 C147.313265,51.1162948 147.780061,51.2091711 148.18111,51.4005526 C148.584039,51.5909959 148.894923,51.8471093 149.103431,52.1745216 C149.319453,52.4944289 149.466912,52.9559959 149.550503,53.5582845 L148.366138,53.7552948 C148.256249,52.8012021 147.743431,52.3283773 146.815475,52.3283773 C146.291387,52.3283773 145.897851,52.4325113 145.639564,52.6417175 C145.382215,52.8509237 145.254481,53.119233 145.254481,53.4485216 C145.254481,53.7665526 145.37658,54.0217278 145.627354,54.2056041 C145.775751,54.3144289 146.211552,54.4879856 146.942271,54.7272124 C147.946304,55.0461814 148.59437,55.2994804 148.888348,55.4880474 C149.184204,55.6775526 149.412436,55.9346041 149.574923,56.2601402 C149.738348,56.5884907 149.819122,56.974068 149.819122,57.4243773 C149.819122,58.2555732 149.557077,58.9310371 149.028293,59.4432639 C148.499508,59.9583052 147.780061,60.217233 146.861497,60.217233 C145.152105,60.217233 144.155586,59.2819031 143.88321,57.4121814 Z M139.763762,60.0202227 L139.763762,51.3095526 L140.856083,51.3095526 L140.856083,52.6313979 C141.133155,52.0178515 141.388624,51.6106969 141.62437,51.4108722 C141.856359,51.2119856 142.116525,51.1162948 142.407685,51.1162948 C142.813431,51.1162948 143.22763,51.2710887 143.646525,51.5881814 L143.237022,52.956934 C142.933652,52.7458515 142.639674,52.6398412 142.355088,52.6398412 C142.100558,52.6398412 141.863873,52.7289649 141.647851,52.9072124 C141.439343,53.0901505 141.286249,53.3406351 141.19984,53.6614804 C141.042989,54.2281196 140.971608,54.8247794 140.971608,55.4589649 L140.971608,60.0202227 L139.763762,60.0202227 Z M132.996635,54.828532 L136.988348,54.828532 C136.931994,54.0752021 136.772326,53.5123155 136.501829,53.1370577 C136.115807,52.5976247 135.618956,52.3283773 135.016912,52.3283773 C134.474978,52.3283773 134.011,52.553532 133.631552,53.0047794 C133.24647,53.4532124 133.033265,54.0648825 132.996635,54.828532 Z M136.979895,57.2151711 L138.226249,57.4028 C138.020558,58.3343773 137.643928,59.034233 137.101055,59.5079959 C136.554425,59.9798825 135.881,60.217233 135.074204,60.217233 C134.061718,60.217233 133.238956,59.8325938 132.61437,59.0614392 C131.987906,58.2968515 131.673265,57.1879649 131.673265,55.7375938 C131.673265,54.2356247 131.993541,53.0882742 132.623762,52.2974186 C133.254923,51.5084392 134.055144,51.1162948 135.024425,51.1162948 C135.947685,51.1162948 136.721608,51.4999959 137.342436,52.2758412 C137.962326,53.0554392 138.267575,54.1765216 138.267575,55.6484701 L138.261,56.0415526 L132.923376,56.0415526 C132.972215,57.0200371 133.201387,57.760233 133.603376,58.2555732 C134.009122,58.7556041 134.503155,59.0042124 135.083597,59.0042124 C135.991829,59.0042124 136.62205,58.4075526 136.979895,57.2151711 Z M127.195033,60.0202227 L124.474094,51.3095526 L125.75426,51.3095526 L127.293652,56.5237588 C127.470227,57.1157278 127.626138,57.7011299 127.753873,58.2818412 C127.85437,57.8249649 128.008403,57.2705216 128.200006,56.6232021 L129.795751,51.3095526 L131.041166,51.3095526 L128.326801,60.0202227 L127.195033,60.0202227 Z M122.136359,60.0202227 L123.344204,60.0202227 L123.344204,51.3095526 L122.136359,51.3095526 L122.136359,60.0202227 Z M122.136359,49.6950062 L123.344204,49.6950062 L123.344204,47.9960268 L122.136359,47.9960268 L122.136359,49.6950062 Z M114.463818,60.0202227 L114.463818,51.3095526 L115.557077,51.3095526 L115.557077,52.5403979 C115.820061,52.0619443 116.140337,51.7082639 116.518845,51.4690371 C116.902989,51.2326247 117.334094,51.1162948 117.828127,51.1162948 C118.210392,51.1162948 118.56542,51.188532 118.887575,51.3386351 C119.214425,51.4878 119.47553,51.6819959 119.676525,51.9277897 C119.877519,52.1754598 120.024039,52.4878619 120.123597,52.8743773 C120.219398,53.2674598 120.271994,53.8613052 120.271994,54.6634186 L120.271994,60.0202227 L119.065088,60.0202227 L119.065088,54.7159546 C119.065088,54.0752021 119.010613,53.6098825 118.901663,53.3115526 C118.788956,53.0160371 118.620834,52.7899443 118.385088,52.6257691 C118.153099,52.4634701 117.88542,52.3856041 117.576414,52.3856041 C116.995972,52.3856041 116.536691,52.5976247 116.190116,53.0310474 C115.846359,53.463532 115.674481,54.2065423 115.674481,55.2563258 L115.674481,60.0202227 L114.463818,60.0202227 Z M111.131442,47.9960268 L112.439785,47.9960268 L112.439785,54.9420474 C112.439785,56.1081608 112.32332,57.0613155 112.096967,57.8099546 C111.871552,58.5557794 111.456414,59.1430577 110.858127,59.5792948 C110.260779,60.0080268 109.497188,60.2266144 108.573928,60.2266144 C107.275917,60.2266144 106.300061,59.8372845 105.649177,59.0586247 C105.002989,58.2827794 104.678956,56.9130887 104.678956,54.9420474 L104.678956,47.9960268 L105.984481,47.9960268 L105.984481,54.9354804 C105.984481,56.024666 106.068072,56.8108309 106.238072,57.2967897 C106.409011,57.7827485 106.687022,58.1551918 107.073044,58.4075526 C107.459066,58.6608515 107.926801,58.7912536 108.480945,58.7912536 C109.408901,58.7912536 110.085144,58.5276351 110.507796,58.0032124 C110.923873,57.4759753 111.131442,56.4533979 111.131442,54.9354804 L111.131442,47.9960268 Z M332.911,41.9759546 L333.907519,41.8699443 C333.959177,42.4037485 334.078459,42.8184082 334.267243,43.1158 C334.451331,43.4141299 334.72089,43.6561711 335.068403,43.8344186 C335.418735,44.0173567 335.812271,44.1055423 336.252768,44.1055423 C336.875475,44.1055423 337.364812,43.9535629 337.710448,43.6449134 C338.056083,43.3390784 338.227022,42.9459959 338.227022,42.4572227 C338.227022,42.1673361 338.166912,41.919666 338.039177,41.7076454 C337.915199,41.4928103 337.729232,41.3164392 337.474702,41.1813464 C337.216414,41.0462536 336.668845,40.8529959 335.823541,40.6034495 C335.074039,40.3820474 334.540558,40.1559546 334.224039,39.9308 C333.907519,39.7056454 333.656746,39.4232639 333.480171,39.0723979 C333.304536,38.7271608 333.216249,38.3359546 333.216249,37.9006557 C333.216249,37.1154289 333.471718,36.4737381 333.973265,35.9718309 C334.486083,35.478367 335.170779,35.2269443 336.030171,35.2269443 C336.623762,35.2269443 337.143155,35.3442124 337.584591,35.5768722 C338.026028,35.8123464 338.367906,36.1472639 338.619619,36.583501 C338.863818,37.0197381 338.996249,37.5338412 339.012215,38.1267485 L337.99879,38.2168103 C337.945254,37.5854392 337.75647,37.1191814 337.433376,36.8152227 C337.107464,36.5103258 336.651,36.3583464 336.063044,36.3583464 C335.468514,36.3583464 335.013928,36.4934392 334.701166,36.7579959 C334.385586,37.0263052 334.227796,37.369666 334.227796,37.7946454 C334.227796,38.1877278 334.34426,38.4907485 334.576249,38.7074598 C334.802602,38.9213567 335.319177,39.1418206 336.122215,39.3641608 C336.911166,39.5818103 337.460613,39.768501 337.779011,39.9251711 C338.263652,40.1747175 338.62995,40.5011918 338.878845,40.905532 C339.124923,41.3079959 339.248901,41.7930165 339.248901,42.3483979 C339.248901,42.9047175 339.119287,43.408501 338.861939,43.863501 C338.599895,44.3222536 338.244867,44.669367 337.796856,44.9085938 C337.346967,45.1468825 336.807851,45.2641505 336.178569,45.2641505 C335.190503,45.2641505 334.410006,44.9676969 333.820171,44.3776041 C333.236912,43.7865732 332.931663,42.9844598 332.911,41.9759546 Z M325.400006,40.3904907 C325.400006,41.588501 325.663928,42.5153876 326.191773,43.1739649 C326.719619,43.8344186 327.36205,44.1637072 328.11437,44.1637072 C328.887354,44.1637072 329.53542,43.8325423 330.059508,43.1645835 C330.583597,42.4966247 330.842823,41.5190784 330.842823,40.2244392 C330.842823,39.391367 330.708514,38.6455423 330.438017,37.9897794 C330.232326,37.4841196 329.919564,37.0788412 329.500669,36.7767588 C329.083652,36.4774907 328.629066,36.3245732 328.135972,36.3245732 C327.33763,36.3245732 326.684867,36.6557381 326.173928,37.3171299 C325.657354,37.9794598 325.400006,39.0048515 325.400006,40.3904907 Z M324.31332,40.3745423 C324.31332,38.7196557 324.675862,37.4484701 325.403762,36.5591093 C326.136359,35.6716247 327.040834,35.2269443 328.12658,35.2269443 C328.828182,35.2269443 329.471552,35.4239546 330.050116,35.8236041 C330.62868,36.2204392 331.087961,36.7945835 331.423265,37.551666 C331.758569,38.3078103 331.933265,39.2074907 331.933265,40.2535216 C331.933265,41.6916969 331.603597,42.8662536 330.948956,43.7678103 C330.232326,44.766934 329.289343,45.2641505 328.122823,45.2641505 C326.945972,45.2641505 326.00205,44.7509856 325.28542,43.7284082 C324.64111,42.8015216 324.31332,41.6841918 324.31332,40.3745423 Z M317.612878,43.9535629 L319.307243,43.9535629 C319.990061,43.9535629 320.510392,43.8438 320.863541,43.6214598 C321.211994,43.395367 321.487188,43.037934 321.676912,42.5463464 C321.927685,41.8887072 322.054481,41.100666 322.054481,40.1812845 C322.054481,39.1981093 321.92111,38.4232021 321.655309,37.8631299 C321.38763,37.3021196 321.042934,36.9259237 320.621221,36.7345423 C320.342271,36.6088309 319.890503,36.5403464 319.278127,36.5403464 L317.612878,36.5403464 L317.612878,43.9535629 Z M316.557188,45.0999753 L316.557188,35.400501 L319.307243,35.400501 C319.987243,35.400501 320.501939,35.4577278 320.855088,35.5768722 C321.318127,35.7307278 321.720116,36.0149856 322.061055,36.4240165 C322.404812,36.8339856 322.667796,37.3527794 322.852823,37.9766454 C323.047243,38.5995732 323.142105,39.3416454 323.142105,40.1953567 C323.142105,41.2958 322.97774,42.2264392 322.659343,42.9910268 C322.331552,43.7574907 321.92111,44.3006763 321.413928,44.6187072 C320.910503,44.9386144 320.248348,45.0999753 319.429343,45.0999753 L316.557188,45.0999753 Z M310.576193,41.1175526 L313.284923,41.1175526 L312.457464,38.4335216 C312.202934,37.6051402 312.015088,36.9353052 311.895807,36.4202639 C311.790613,37.0403773 311.645972,37.6586144 311.461884,38.2702845 L310.576193,41.1175526 Z M308.288238,45.0999753 L311.359508,35.400501 L312.487519,35.400501 L315.752271,45.0999753 L314.543486,45.0999753 L313.61647,42.1598309 L310.265309,42.1598309 L309.397464,45.0999753 L308.288238,45.0999753 Z M301.761552,45.0999753 L301.761552,35.400501 L307.51995,35.400501 L307.51995,36.5403464 L302.817243,36.5403464 L302.817243,39.5067588 L307.222215,39.5067588 L307.222215,40.6531711 L302.817243,40.6531711 L302.817243,43.9535629 L307.708735,43.9535629 L307.708735,45.0999753 L301.761552,45.0999753 Z M295.490337,45.0999753 L295.490337,35.400501 L296.544149,35.400501 L296.544149,43.9535629 L300.467298,43.9535629 L300.467298,45.0999753 L295.490337,45.0999753 Z M289.18437,40.0096041 L291.244094,40.0096041 C291.894978,40.0096041 292.368348,39.8651299 292.66984,39.5677381 C292.970392,39.2769134 293.120669,38.8350474 293.120669,38.2430784 C293.120669,37.8612536 293.043652,37.5319649 292.89995,37.2589649 C292.749674,36.9859649 292.569343,36.7955216 292.358017,36.6942021 C292.151387,36.5947588 291.771,36.5403464 291.22437,36.5403464 L289.18437,36.5403464 L289.18437,40.0096041 Z M288.132436,45.0999753 L288.132436,35.400501 L291.131387,35.400501 C291.838624,35.400501 292.358017,35.4614804 292.69426,35.5834392 C293.156359,35.7504289 293.523597,36.0609546 293.795033,36.5178309 C294.069287,36.9709546 294.207354,37.5291505 294.207354,38.1914804 C294.207354,39.0630165 293.981,39.7760062 293.534867,40.3266969 C293.092492,40.8820784 292.320448,41.1532021 291.22437,41.1532021 L289.18437,41.1532021 L289.18437,45.0999753 L288.132436,45.0999753 Z M278.837851,45.0999753 L278.837851,35.400501 L280.421387,35.400501 L282.31205,42.2649031 L282.689619,43.7021402 C282.78542,43.3447072 282.925365,42.8277897 283.114149,42.1466969 L285.024536,35.400501 L286.443707,35.400501 L286.443707,45.0999753 L285.429343,45.0999753 L285.429343,36.9859649 L283.107575,45.0999753 L282.163652,45.0999753 L279.853155,36.8471196 L279.853155,45.0999753 L278.837851,45.0999753 Z M268.669785,45.0999753 L268.669785,31.2398309 L276.890834,31.2398309 L276.890834,32.8768928 L270.173486,32.8768928 L270.173486,37.1107381 L276.465365,37.1107381 L276.465365,38.7449856 L270.173486,38.7449856 L270.173486,43.4629134 L277.159453,43.4629134 L277.159453,45.0999753 L268.669785,45.0999753 Z M258.672657,45.0999753 L258.672657,40.9880887 L255.607022,35.400501 L256.893762,35.400501 L258.456635,38.3237588 C258.768459,38.9063464 259.039895,39.4514082 259.271884,39.9702021 C259.506691,39.4636041 259.795033,38.8894598 260.141608,38.2524598 L261.691331,35.400501 L262.909508,35.400501 L259.72553,40.9880887 L259.72553,45.0999753 L258.672657,45.0999753 Z M244.237685,41.9759546 L245.231387,41.8699443 C245.283983,42.4037485 245.405144,42.8184082 245.59205,43.1158 C245.778956,43.4141299 246.048514,43.6561711 246.401663,43.8344186 C246.750116,44.0173567 247.140834,44.1055423 247.579453,44.1055423 C248.207796,44.1055423 248.692436,43.9535629 249.037133,43.6449134 C249.383707,43.3390784 249.56216,42.9459959 249.56216,42.4572227 C249.56216,42.1673361 249.496414,41.919666 249.373376,41.7076454 C249.243762,41.4928103 249.054039,41.3164392 248.798569,41.1813464 C248.543099,41.0462536 247.99553,40.8529959 247.152105,40.6034495 C246.401663,40.3820474 245.869122,40.1559546 245.548845,39.9308 C245.231387,39.7056454 244.985309,39.4232639 244.807796,39.0723979 C244.634039,38.7271608 244.541994,38.3359546 244.541994,37.9006557 C244.541994,37.1154289 244.798403,36.4737381 245.305586,35.9718309 C245.811829,35.478367 246.495586,35.2269443 247.358735,35.2269443 C247.952326,35.2269443 248.467022,35.3442124 248.911276,35.5768722 C249.354591,35.8123464 249.702105,36.1472639 249.944425,36.583501 C250.188624,37.0197381 250.321994,37.5338412 250.33984,38.1267485 L249.323597,38.2168103 C249.271939,37.5854392 249.084094,37.1191814 248.760061,36.8152227 C248.436967,36.5103258 247.982381,36.3583464 247.389729,36.3583464 C246.796138,36.3583464 246.342492,36.4934392 246.029729,36.7579959 C245.71321,37.0263052 245.552602,37.369666 245.552602,37.7946454 C245.552602,38.1877278 245.670006,38.4907485 245.902934,38.7074598 C246.132105,38.9213567 246.645862,39.1418206 247.452657,39.3641608 C248.237851,39.5818103 248.791055,39.768501 249.105696,39.9251711 C249.591276,40.1747175 249.960392,40.5011918 250.207409,40.905532 C250.458182,41.3079959 250.579343,41.7930165 250.579343,42.3483979 C250.579343,42.9047175 250.447851,43.408501 250.188624,43.863501 C249.924702,44.3222536 249.573431,44.669367 249.126359,44.9085938 C248.673652,45.1468825 248.137354,45.2641505 247.503376,45.2641505 C246.520006,45.2641505 245.736691,44.9676969 245.147796,44.3776041 C244.564536,43.7865732 244.263044,42.9844598 244.237685,41.9759546 Z M237.196304,45.0999753 L237.196304,35.400501 L242.954702,35.400501 L242.954702,36.5403464 L238.251994,36.5403464 L238.251994,39.5067588 L242.654149,39.5067588 L242.654149,40.6531711 L238.251994,40.6531711 L238.251994,43.9535629 L243.135972,43.9535629 L243.135972,45.0999753 L237.196304,45.0999753 Z M230.197188,39.677501 L232.460724,39.677501 C232.951939,39.677501 233.333265,39.6202742 233.585917,39.4983155 C233.843265,39.3829237 234.04426,39.1952948 234.196414,38.9410577 C234.349508,38.6811918 234.422768,38.3856763 234.422768,38.0451299 C234.422768,37.5554186 234.277188,37.1707794 233.989785,36.8893361 C233.70332,36.6116454 233.276912,36.4709237 232.711497,36.4709237 L230.197188,36.4709237 L230.197188,39.677501 Z M229.143376,45.0999753 L229.143376,35.400501 L232.669232,35.400501 C233.413099,35.400501 233.953155,35.4886866 234.305365,35.6697485 C234.655696,35.848934 234.944978,36.1510165 235.169453,36.5731814 C235.393928,36.9934701 235.508514,37.4831814 235.508514,38.0338722 C235.508514,38.7693773 235.315972,39.3622845 234.937464,39.8144701 C234.55332,40.2713464 233.997298,40.5565423 233.268459,40.6831918 C233.566193,40.8595629 233.790669,41.0396866 233.945641,41.2198103 C234.256525,41.5922536 234.534536,42.0031608 234.775917,42.4581608 L236.164094,45.0999753 L234.837906,45.0999753 L233.77658,43.0829649 C233.360503,42.2939856 233.052436,41.7629959 232.847685,41.4871814 C232.633541,41.2132433 232.436304,41.0274907 232.240006,40.9346144 C232.041829,40.8398619 231.764757,40.7920165 231.415365,40.7920165 L230.197188,40.7920165 L230.197188,45.0999753 L229.143376,45.0999753 Z M221.279232,40.3904907 C221.279232,41.588501 221.544094,42.5153876 222.071,43.1739649 C222.599785,43.8344186 223.242215,44.1637072 223.992657,44.1637072 C224.76658,44.1637072 225.417464,43.8325423 225.937796,43.1645835 C226.462823,42.4966247 226.723928,41.5190784 226.723928,40.2244392 C226.723928,39.391367 226.590558,38.6455423 226.321,37.9897794 C226.11437,37.4841196 225.799729,37.0788412 225.381773,36.7767588 C224.962878,36.4774907 224.510171,36.3245732 224.01426,36.3245732 C223.218735,36.3245732 222.566912,36.6557381 222.051276,37.3171299 C221.537519,37.9794598 221.279232,39.0048515 221.279232,40.3904907 Z M220.192547,40.3745423 C220.192547,38.7196557 220.559785,37.4484701 221.285807,36.5591093 C222.018403,35.6716247 222.924757,35.2269443 224.009564,35.2269443 C224.710227,35.2269443 225.350779,35.4239546 225.931221,35.8236041 C226.507906,36.2204392 226.965309,36.7945835 227.302492,37.551666 C227.639674,38.3078103 227.809674,39.2074907 227.809674,40.2535216 C227.809674,41.6916969 227.482823,42.8662536 226.831,43.7678103 C226.108735,44.766934 225.169508,45.2641505 224.00205,45.2641505 C222.829895,45.2641505 221.883155,44.7509856 221.166525,43.7284082 C220.517519,42.8015216 220.192547,41.6841918 220.192547,40.3745423 Z M212.713486,41.9759546 L213.709066,41.8699443 C213.762602,42.4037485 213.880945,42.8184082 214.06879,43.1158 C214.255696,43.4141299 214.524315,43.6561711 214.871829,43.8344186 C215.22216,44.0173567 215.614757,44.1055423 216.051497,44.1055423 C216.677022,44.1055423 217.166359,43.9535629 217.516691,43.6449134 C217.859508,43.3390784 218.035144,42.9459959 218.035144,42.4572227 C218.035144,42.1673361 217.973155,41.919666 217.846359,41.7076454 C217.720503,41.4928103 217.527961,41.3164392 217.27437,41.1813464 C217.022657,41.0462536 216.47321,40.8529959 215.630724,40.6034495 C214.876525,40.3820474 214.346801,40.1559546 214.026525,39.9308 C213.709066,39.7056454 213.46111,39.4232639 213.283597,39.0723979 C213.105144,38.7271608 213.020613,38.3359546 213.020613,37.9006557 C213.020613,37.1154289 213.274204,36.4737381 213.779508,35.9718309 C214.28763,35.478367 214.975144,35.2269443 215.836414,35.2269443 C216.426249,35.2269443 216.944702,35.3442124 217.385199,35.5768722 C217.831331,35.8123464 218.176028,36.1472639 218.422105,36.583501 C218.663486,37.0197381 218.798735,37.5338412 218.81658,38.1267485 L217.801276,38.2168103 C217.746801,37.5854392 217.561773,37.1191814 217.234923,36.8152227 C216.91089,36.5103258 216.455365,36.3583464 215.86647,36.3583464 C215.271939,36.3583464 214.817354,36.4934392 214.503652,36.7579959 C214.191829,37.0263052 214.033099,37.369666 214.033099,37.7946454 C214.033099,38.1877278 214.148624,38.4907485 214.374978,38.7074598 C214.606028,38.9213567 215.121663,39.1418206 215.928459,39.3641608 C216.712713,39.5818103 217.264039,39.768501 217.583376,39.9251711 C218.068956,40.1747175 218.435254,40.5011918 218.682271,40.905532 C218.932105,41.3079959 219.054204,41.7930165 219.054204,42.3483979 C219.054204,42.9047175 218.923652,43.408501 218.662547,43.863501 C218.401442,44.3222536 218.047354,44.669367 217.600282,44.9085938 C217.151331,45.1468825 216.612215,45.2641505 215.981994,45.2641505 C214.995807,45.2641505 214.210613,44.9676969 213.624536,44.3776041 C213.039398,43.7865732 212.734149,42.9844598 212.713486,41.9759546 Z M205.673044,45.0999753 L205.673044,35.400501 L211.426746,35.400501 L211.426746,36.5403464 L206.724978,36.5403464 L206.724978,39.5067588 L211.12995,39.5067588 L211.12995,40.6531711 L206.724978,40.6531711 L206.724978,43.9535629 L211.61553,43.9535629 L211.61553,45.0999753 L205.673044,45.0999753 Z M198.930337,45.0999753 L198.930337,35.400501 L204.302713,35.400501 L204.302713,36.5403464 L199.985088,36.5403464 L199.985088,39.5461608 L203.716635,39.5461608 L203.716635,40.6906969 L199.985088,40.6906969 L199.985088,45.0999753 L198.930337,45.0999753 Z M190.989177,40.3904907 C190.989177,41.588501 191.251221,42.5153876 191.778127,43.1739649 C192.305972,43.8344186 192.948403,44.1637072 193.704481,44.1637072 C194.473707,44.1637072 195.12553,43.8325423 195.649619,43.1645835 C196.172768,42.4966247 196.433873,41.5190784 196.433873,40.2244392 C196.433873,39.391367 196.295807,38.6455423 196.025309,37.9897794 C195.81868,37.4841196 195.508735,37.0788412 195.090779,36.7767588 C194.673762,36.4774907 194.219177,36.3245732 193.723265,36.3245732 C192.92868,36.3245732 192.274978,36.6557381 191.758403,37.3171299 C191.247464,37.9794598 190.989177,39.0048515 190.989177,40.3904907 Z M189.898735,40.3745423 C189.898735,38.7196557 190.265033,37.4484701 190.993873,36.5591093 C191.724591,35.6716247 192.630006,35.2269443 193.71763,35.2269443 C194.42111,35.2269443 195.056967,35.4239546 195.638348,35.8236041 C196.216912,36.2204392 196.673376,36.7945835 197.013376,37.551666 C197.34868,38.3078103 197.520558,39.2074907 197.520558,40.2535216 C197.520558,41.6916969 197.19089,42.8662536 196.537188,43.7678103 C195.816801,44.766934 194.874757,45.2641505 193.706359,45.2641505 C192.537022,45.2641505 191.591221,44.7509856 190.874591,43.7284082 C190.226525,42.8015216 189.898735,41.6841918 189.898735,40.3745423 Z M183.217077,39.677501 L185.482492,39.677501 C185.978403,39.677501 186.350337,39.6202742 186.610503,39.4983155 C186.867851,39.3829237 187.070724,39.1952948 187.218182,38.9410577 C187.365641,38.6811918 187.444536,38.3856763 187.444536,38.0451299 C187.444536,37.5554186 187.301773,37.1707794 187.013431,36.8893361 C186.726028,36.6116454 186.300558,36.4709237 185.735144,36.4709237 L183.217077,36.4709237 L183.217077,39.677501 Z M182.164204,45.0999753 L182.164204,35.400501 L185.695696,35.400501 C186.434867,35.400501 186.97868,35.4886866 187.329011,35.6697485 C187.677464,35.848934 187.966746,36.1510165 188.189343,36.5731814 C188.416635,36.9934701 188.529343,37.4831814 188.529343,38.0338722 C188.529343,38.7693773 188.340558,39.3622845 187.956414,39.8144701 C187.571331,40.2713464 187.020945,40.5565423 186.289287,40.6831918 C186.586083,40.8595629 186.814315,41.0396866 186.962713,41.2198103 C187.28205,41.5922536 187.556304,42.0031608 187.792989,42.4581608 L189.183044,45.0999753 L187.861552,45.0999753 L186.799287,43.0829649 C186.387906,42.2939856 186.078901,41.7629959 185.866635,41.4871814 C185.659066,41.2132433 185.458072,41.0274907 185.258017,40.9346144 C185.063597,40.8398619 184.787464,40.7920165 184.438072,40.7920165 L183.217077,40.7920165 L183.217077,45.0999753 L182.164204,45.0999753 Z M173.43879,37.8284186 L176.381387,37.8284186 C177.308403,37.8284186 177.983707,37.6210887 178.413873,37.2026763 C178.840282,36.7814495 179.056304,36.1510165 179.056304,35.3048103 C179.056304,34.756934 178.952989,34.2906763 178.741663,33.898532 C178.531276,33.5092021 178.27111,33.2380784 177.973376,33.0964186 C177.673762,32.9491299 177.134646,32.8768928 176.349453,32.8768928 L173.43879,32.8768928 L173.43879,37.8284186 Z M171.928514,45.0999753 L171.928514,31.2398309 L176.220779,31.2398309 C177.22763,31.2398309 177.970558,31.3336454 178.450503,31.5081402 C179.105144,31.7464289 179.633928,32.1920474 180.02089,32.839367 C180.414425,33.4848103 180.608845,34.2859856 180.608845,35.2306969 C180.608845,36.4774907 180.292326,37.4953773 179.65553,38.2852948 C179.015917,39.0705216 177.912326,39.4654804 176.349453,39.4654804 L173.43879,39.4654804 L173.43879,45.0999753 L171.928514,45.0999753 Z M159.752381,45.0999753 L159.752381,35.400501 L165.508901,35.400501 L165.508901,36.5403464 L160.807133,36.5403464 L160.807133,39.5067588 L165.211166,39.5067588 L165.211166,40.6531711 L160.807133,40.6531711 L160.807133,43.9535629 L165.697685,43.9535629 L165.697685,45.0999753 L159.752381,45.0999753 Z M152.732602,43.9535629 L154.427906,43.9535629 C155.110724,43.9535629 155.630116,43.8438 155.985144,43.6214598 C156.339232,43.395367 156.610669,43.037934 156.799453,42.5463464 C157.052105,41.8887072 157.177961,41.100666 157.177961,40.1812845 C157.177961,39.1981093 157.043652,38.4232021 156.77879,37.8631299 C156.507354,37.3021196 156.162657,36.9259237 155.74658,36.7345423 C155.463873,36.6088309 155.014923,36.5403464 154.399729,36.5403464 L152.732602,36.5403464 L152.732602,43.9535629 Z M151.679729,45.0999753 L151.679729,35.400501 L154.427906,35.400501 C155.106967,35.400501 155.623541,35.4577278 155.976691,35.5768722 C156.441608,35.7307278 156.844536,36.0149856 157.182657,36.4240165 C157.523597,36.8339856 157.789398,37.3527794 157.979122,37.9766454 C158.166028,38.5995732 158.261829,39.3416454 158.261829,40.1953567 C158.261829,41.2958 158.100282,42.2264392 157.780945,42.9910268 C157.454094,43.7574907 157.043652,44.3006763 156.537409,44.6187072 C156.034923,44.9386144 155.368072,45.0999753 154.553762,45.0999753 L151.679729,45.0999753 Z M139.416249,40.3904907 C139.416249,41.588501 139.680171,42.5153876 140.207077,43.1739649 C140.734923,43.8344186 141.375475,44.1637072 142.129674,44.1637072 C142.907354,44.1637072 143.553541,43.8325423 144.076691,43.1645835 C144.59984,42.4966247 144.862823,41.5190784 144.862823,40.2244392 C144.862823,39.391367 144.727575,38.6455423 144.458017,37.9897794 C144.250448,37.4841196 143.939564,37.0788412 143.517851,36.7767588 C143.100834,36.4774907 142.647188,36.3245732 142.151276,36.3245732 C141.35763,36.3245732 140.70205,36.6557381 140.188293,37.3171299 C139.671718,37.9794598 139.416249,39.0048515 139.416249,40.3904907 Z M138.330503,40.3745423 C138.330503,38.7196557 138.695862,37.4484701 139.424702,36.5591093 C140.150724,35.6716247 141.059895,35.2269443 142.147519,35.2269443 C142.850061,35.2269443 143.489674,35.4239546 144.068238,35.8236041 C144.645862,36.2204392 145.104204,36.7945835 145.444204,37.551666 C145.779508,38.3078103 145.948569,39.2074907 145.948569,40.2535216 C145.948569,41.6916969 145.622657,42.8662536 144.969895,43.7678103 C144.24763,44.766934 143.304646,45.2641505 142.138127,45.2641505 C140.963155,45.2641505 140.018293,44.7509856 139.303541,43.7284082 C138.653597,42.8015216 138.330503,41.6841918 138.330503,40.3745423 Z M131.626304,43.9535629 L133.320669,43.9535629 C134.005365,43.9535629 134.524757,43.8438 134.877906,43.6214598 C135.232934,43.395367 135.503431,43.037934 135.694094,42.5463464 C135.944867,41.8887072 136.070724,41.100666 136.070724,40.1812845 C136.070724,39.1981093 135.939232,38.4232021 135.669674,37.8631299 C135.402934,37.3021196 135.061055,36.9259237 134.640282,36.7345423 C134.356635,36.6088309 133.908624,36.5403464 133.29437,36.5403464 L131.626304,36.5403464 L131.626304,43.9535629 Z M130.572492,45.0999753 L130.572492,35.400501 L133.320669,35.400501 C134.002547,35.400501 134.518182,35.4577278 134.872271,35.5768722 C135.338127,35.7307278 135.740116,36.0149856 136.080116,36.4240165 C136.419177,36.8339856 136.683099,37.3527794 136.873762,37.9766454 C137.063486,38.5995732 137.159287,39.3416454 137.159287,40.1953567 C137.159287,41.2958 136.996801,42.2264392 136.672768,42.9910268 C136.353431,43.7574907 135.939232,44.3006763 135.433928,44.6187072 C134.923928,44.9386144 134.268348,45.0999753 133.446525,45.0999753 L130.572492,45.0999753 Z M122.540227,45.0999753 L122.540227,35.400501 L123.618459,35.400501 L127.802713,43.0294907 L127.802713,35.400501 L128.811442,35.400501 L128.811442,45.0999753 L127.731331,45.0999753 L123.553652,37.4653567 L123.553652,45.0999753 L122.540227,45.0999753 Z M114.700503,40.3904907 C114.700503,41.588501 114.966304,42.5153876 115.491331,43.1739649 C116.021994,43.8344186 116.662547,44.1637072 117.416746,44.1637072 C118.192547,44.1637072 118.840613,43.8325423 119.361884,43.1645835 C119.884094,42.4966247 120.145199,41.5190784 120.145199,40.2244392 C120.145199,39.391367 120.011829,38.6455423 119.741331,37.9897794 C119.535641,37.4841196 119.223818,37.0788412 118.80774,36.7767588 C118.388845,36.4774907 117.931442,36.3245732 117.43647,36.3245732 C116.643762,36.3245732 115.989122,36.6557381 115.472547,37.3171299 C114.959729,37.9794598 114.700503,39.0048515 114.700503,40.3904907 Z M113.617575,40.3745423 C113.617575,38.7196557 113.981994,37.4484701 114.708017,36.5591093 C115.439674,35.6716247 116.346028,35.2269443 117.430834,35.2269443 C118.133376,35.2269443 118.77205,35.4239546 119.352492,35.8236041 C119.931055,36.2204392 120.390337,36.7945835 120.727519,37.551666 C121.065641,38.3078103 121.231884,39.2074907 121.231884,40.2535216 C121.231884,41.6916969 120.909729,42.8662536 120.25321,43.7678103 C119.533762,44.766934 118.590779,45.2641505 117.422381,45.2641505 C116.249287,45.2641505 115.305365,44.7509856 114.589674,43.7284082 C113.940669,42.8015216 113.617575,41.6841918 113.617575,40.3745423 Z M104.678956,45.0999753 L104.678956,31.2398309 L112.351497,31.2398309 L112.351497,32.8768928 L106.184536,32.8768928 L106.184536,37.1670268 L111.519343,37.1670268 L111.519343,38.8040887 L106.184536,38.8040887 L106.184536,45.0999753 L104.678956,45.0999753 Z"/>
  </g>
</svg>
